<svg xmlns="http://www.w3.org/2000/svg" width="164" height="100" viewBox="0 0 164 100"><defs><style>.a{fill:#fff;opacity:0;}.b{fill:#f77d0c;}</style></defs><g transform="translate(-381 -774.751)"><rect class="a" width="164" height="100" transform="translate(381 774.751)"/><path class="b" d="M464.91,835.236H426.186a4.637,4.637,0,0,0-4.642,4.611v2.022a4.629,4.629,0,0,0,4.636,4.6h38.727a4.63,4.63,0,0,0,4.641-4.61v-2.021A4.637,4.637,0,0,0,464.91,835.236Zm1.45,6.623a1.438,1.438,0,0,1-.428,1.021,1.378,1.378,0,0,1-1.028.421H426.189a1.464,1.464,0,0,1-1.029-.421,1.431,1.431,0,0,1-.428-1.016v-2.013a1.452,1.452,0,0,1,1.458-1.442h38.716a1.451,1.451,0,0,1,1.454,1.438Z" transform="translate(-7.95 -12.069)"/><path class="b" d="M426.18,814.216h91.691a4.626,4.626,0,0,0,3.273-1.344,4.579,4.579,0,0,0,1.368-3.266V799.52a4.636,4.636,0,0,0-4.639-4.606H426.186a4.637,4.637,0,0,0-4.642,4.61V809.61a4.629,4.629,0,0,0,4.636,4.606Zm-1.448-14.686a1.453,1.453,0,0,1,1.458-1.442h91.68a1.451,1.451,0,0,1,1.454,1.438V809.6a1.427,1.427,0,0,1-.428,1.021,1.447,1.447,0,0,1-1.024.421H426.185a1.45,1.45,0,0,1-1.025-.421,1.431,1.431,0,0,1-.428-1.016Z" transform="translate(-7.95 -4.022)"/><path class="b" d="M394.22,864.045a3.335,3.335,0,0,0,1.728,2.756,5.236,5.236,0,0,0,2.7.842h.01c1.8,0,4.416-1.4,4.423-3.6V799.954H394.22Zm3.189-60.918h2.48V863.92a2.069,2.069,0,0,1-1.233.55h-.014a2.067,2.067,0,0,1-1.233-.55Z" transform="translate(-2.592 -4.989)"/><path class="b" d="M464.91,865.478H426.186a4.637,4.637,0,0,0-4.642,4.612v2.021a4.629,4.629,0,0,0,4.636,4.605h38.714a4.647,4.647,0,0,0,4.654-4.61v-2.021A4.636,4.636,0,0,0,464.91,865.478Zm1.45,6.623a1.451,1.451,0,0,1-1.453,1.442H426.185a1.453,1.453,0,0,1-1.025-.42,1.432,1.432,0,0,1-.428-1.017v-2.013a1.452,1.452,0,0,1,1.458-1.442h38.716a1.452,1.452,0,0,1,1.454,1.439Z" transform="translate(-7.95 -18.104)"/><path class="b" d="M543.013,851.154l4.1-2.7a11.12,11.12,0,0,0,3.534-3.245,7.466,7.466,0,0,0,1.083-4.038,5.965,5.965,0,0,0-1.849-4.357,6.926,6.926,0,0,0-9.558.148,7.062,7.062,0,0,0-1.833,5.027c0,2.24,1.184,4.856,3.621,8Zm-.368-12.022a3.27,3.27,0,0,1,2.555-.986,3.217,3.217,0,0,1,2.422.91,2.835,2.835,0,0,1,.916,2.114,4.307,4.307,0,0,1-.6,2.358,8.177,8.177,0,0,1-2.573,2.27l-1.609,1.06c-1.7-2.446-2.082-3.98-2.082-4.869A3.966,3.966,0,0,1,542.645,839.132Z" transform="translate(-30.88 -12.015)"/><path class="b" d="M545,872.37l-9.607-11.1c2.969-4.481,4.472-10.2,4.472-17.013v-1.587h-9V782.385a7.683,7.683,0,0,0-7.69-7.634H404.987a7.683,7.683,0,0,0-7.689,7.639v.43h-8.608A7.684,7.684,0,0,0,381,790.459v68.59a15.781,15.781,0,0,0,15.809,15.7h120.27a13.724,13.724,0,0,0,9.718-3.993c.06-.059.113-.123.17-.183l1.574,1.8Zm-12.9-11.947-.763,1.021,6.71,7.752h-8.053l-3.241-3.7-1.163.762a23.182,23.182,0,0,1-12.949,3.682c-4.959,0-8.956-1.289-11.879-3.831a12.381,12.381,0,0,1-4.312-9.909,10.741,10.741,0,0,1,1.85-6.086c1.288-1.952,3.754-4.2,7.331-6.674l1.355-.937-.987-1.316a36.351,36.351,0,0,1-3.654-5.824,11.921,11.921,0,0,1-1.224-5.243,12.19,12.19,0,0,1,3.544-9.158c2.39-2.357,5.562-3.5,9.7-3.5a12.5,12.5,0,0,1,8.911,3.185,10.148,10.148,0,0,1,3.394,7.839c0,3.824-1.943,7.146-5.916,10.136l-5.59,4.025,12.06,13.969L528.3,854.5a21.92,21.92,0,0,0,2.328-8.656h6.023C536.418,851.788,534.891,856.687,532.1,860.424Zm-38.812-4.985H471.2A1.45,1.45,0,0,1,469.747,854v-2.013a1.454,1.454,0,0,1,1.457-1.444h23.246A13.821,13.821,0,0,0,493.285,855.439Zm34.2-12.768v1.587a19.812,19.812,0,0,1-1.07,6.556l-6.58-7.621,2.807-2.021a20.191,20.191,0,0,0,5.029-5.281v6.779ZM396.85,871.577h-.036a12.6,12.6,0,0,1-12.626-12.533v-68.58A4.5,4.5,0,0,1,388.694,786h11.791v-3.6a4.5,4.5,0,0,1,4.505-4.468H523.17a4.5,4.5,0,0,1,4.5,4.464v38.572a14.135,14.135,0,0,0-2.235-2.644,15.755,15.755,0,0,0-11.08-4.033c-4.947,0-8.965,1.487-11.939,4.422a14.56,14.56,0,0,0-3.083,4.457H471.2a4.64,4.64,0,0,0-4.643,4.613V829.8a4.636,4.636,0,0,0,4.636,4.607h27.364a15.556,15.556,0,0,0,.911,2.339,36.88,36.88,0,0,0,3.016,5.028,31.05,31.05,0,0,0-6.122,5.6H471.2a4.64,4.64,0,0,0-4.643,4.614v2.022a4.636,4.636,0,0,0,4.636,4.608h22.23a15.225,15.225,0,0,0,5.236,9.887,17.559,17.559,0,0,0,5.16,3.076Zm101.125-40.344H471.2a1.451,1.451,0,0,1-1.453-1.437v-2.013a1.453,1.453,0,0,1,1.457-1.443h27.111a18.575,18.575,0,0,0-.387,3.782C497.929,830.494,497.947,830.864,497.975,831.233Z"/><path class="b" d="M538.113,865.482l-.109.084a10.026,10.026,0,0,0-3.886,7.846,8.552,8.552,0,0,0,2.552,6.381,8.983,8.983,0,0,0,6.515,2.475,15.4,15.4,0,0,0,8.2-2.39l1.587-.982-12.9-14.808Zm5.072,13.614a5.824,5.824,0,0,1-4.285-1.569,5.436,5.436,0,0,1-1.594-4.114,6.7,6.7,0,0,1,2.3-5.016l8.424,9.674A11.782,11.782,0,0,1,543.184,879.1Z" transform="translate(-30.023 -17.816)"/></g></svg>